<?xml version="1.0" standalone="no"?><!DOCTYPE svg PUBLIC "-//W3C//DTD SVG 1.1//EN" "http://www.w3.org/Graphics/SVG/1.1/DTD/svg11.dtd" [<!ENTITY nbsp " ">]><svg data-noselect="" viewBox="250.059692382812 96.26388437900823 447.044097738978 335.28307330423354" width="447.044097738978" ref="svg_canvas" height="335.28307330423354" preserveAspectRatio="none" version="1.1" xmlns="http://www.w3.org/2000/svg" style="background: #ffffff;">
    <def></def>
    <g id="shape_5JzoTCeEzP" ref="shape_5JzoTCeEzP" key="shape_5JzoTCeEzP" transform="translate(491.01565581392,190.332862854) rotate(0,63.044067153935,73.572560220165) scale(1,1)" style="cursor:move;display:inline;opacity:1;" filter="">
            <g style="display:inline"><rect fill="rgba(0,0,0,0)" width="146.08813430787" height="167.14512044033" x="-10" y="-10"></rect><svg version="1.1" id="图层_1" xmlns="http://www.w3.org/2000/svg" xmlns:xlink="http://www.w3.org/1999/xlink" x="0px" y="0px" viewBox="0 0 235.5 274.829" style="enable-background:new 0 0 235.5 274.829;" xml:space="preserve" width="126.08813430787" height="147.14512044033" class="style-removed" preserveAspectRatio="none" data-parent="shape_5JzoTCeEzP">
<path d="M230.016,66.312c-5.911-27.824-20.595-49.269-48.077-59.79c-20.627-7.897-41.433-5.934-61.772,1.367
	c-8.615,3.092-16.683,6.846-24.32,11.154c10.967-4.991,22.543-8.371,34.901-9.07c38.66-2.186,67.658,20.757,75.642,59.275
	c6.354,30.653,0.6,59.602-11.342,87.643c-3.749,8.802-8.517,17.165-11.238,22.581c-20.311,30.332-42.596,53.431-73.394,66.994
	c-20.233,8.91-41.349,13.075-63.058,5.846C23.58,244.395,9.323,227.8,2.434,205.612c0.146,0.83,0.289,1.66,0.45,2.493
	c8.847,45.833,46.997,72.155,92.885,63.721c28.589-5.255,52.413-19.917,73.311-39.34c20.667-19.208,36.221-42.366,47.816-68.011
	C231.061,133.147,237.272,100.469,230.016,66.312z" fill="#013C96" stroke-width="0"></path>
</svg></g>
        </g><g id="shape_qCzbgngugT" ref="shape_qCzbgngugT" key="shape_qCzbgngugT" transform="translate(511.81217895255,190.33285876792) rotate(0,16.736208104657,16.736208104657) scale(1,1)" style="cursor:move;display:inline;opacity:1;" filter="">
            <g style="display:inline"><rect fill="rgba(0,0,0,0)" width="53.472416209314" height="53.472416209314" x="-10" y="-10"></rect><svg version="1.1" id="图层_1" xmlns="http://www.w3.org/2000/svg" xmlns:xlink="http://www.w3.org/1999/xlink" x="0px" y="0px" viewBox="0 0 283.465 283.465" style="enable-background:new 0 0 283.465 283.465;" xml:space="preserve" width="33.472416209314" height="33.472416209314" preserveAspectRatio="none" class="style-removed" data-parent="shape_qCzbgngugT">
<path d="M279.941,140.938c-107.771,17.375-121.279,31.034-137.413,138.997
	c-17.367-107.771-31.036-121.277-139.005-137.41c107.77-17.374,121.279-31.034,137.411-138.996
	C158.31,111.294,171.973,124.805,279.941,140.938z" fill="#f08200" stroke-width="0"></path>
</svg></g>
        </g><g id="shape_PHBQjkDeEH" ref="shape_PHBQjkDeEH" key="shape_PHBQjkDeEH" transform="translate(249.90969238281198,-14.826788842770014) rotate(0,327.15,287.02185775000004) scale(1,1)" style="cursor:move;display:inline;opacity:1;" filter="">
            <g style="display:inline"><svg xmlns="http://www.w3.org/2000/svg" version="1.1" xmlns:xlink="http://www.w3.org/1999/xlink" width="551.6" height="562.5977" viewBox="0 0 551.6 562.5977" preserveAspectRatio="none" data-parent="shape_PHBQjkDeEH"><rect fill="rgba(0,0,0,0)" width="231" height="80" x="80.15" y="241.29885000000002"></rect><g data-width="230.67170000000004" transform="translate(80.47829999999996, 0)"><path d="M28.77-53.70L28.77-53.70Q43.84-53.70 50.09-45.69L50.09-45.69Q55.38-38.87 55.38-26.69L55.38-26.69Q55.38-12.18 48.41-5.53L48.41-5.53Q42.08 0.32 30.22 0.32L30.22 0.32Q14.35 0.32 7.61-8.42L7.61-8.42Q2.64-14.99 2.64-26.85L2.64-26.85Q2.64-40.56 9.02-47.09Q15.39-53.62 28.77-53.70ZM28.53-44.80L28.53-44.80Q24.93-44.80 22.00-43.24Q19.08-41.68 17.55-38.87L17.55-38.87Q16.51-37.11 15.83-33.78Q15.15-30.46 15.15-27.33L15.15-27.33Q15.15-23.72 15.87-20.12Q16.59-16.51 17.63-14.51L17.63-14.51Q20.76-8.66 29.66-8.66L29.66-8.66Q34.54-8.66 37.19-10.66L37.19-10.66Q40.88-13.39 42.00-18.76L42.00-18.76Q42.88-22.92 42.88-27.17L42.88-27.17Q42.88-31.26 41.92-34.83Q40.96-38.39 39.35-40.40L39.35-40.40Q37.75-42.40 34.87-43.56Q31.98-44.72 28.53-44.80Z" transform="translate(0 309.29885) skewX(0)" fill="rgb(1, 60, 150)" stroke="rgb(1, 60, 150)" stroke-width="0.134" data-glyph-w="58.02860000000001" data-glyph-h="80.15000000000002" data-glyph-ascender="68.84885000000001" data-glyph-descender="-11.301150000000002"></path><path d="M38.15 0L16.35-39.19L16.35 0L5.45 0L5.45-53.46L20.04-53.46L41.28-13.63L41.28-53.46L52.10-53.46L52.10 0L38.15 0Z" transform="translate(58.02860000000001 309.29885) skewX(0)" fill="rgb(1, 60, 150)" stroke="rgb(1, 60, 150)" stroke-width="0.134" data-glyph-w="57.547700000000006" data-glyph-h="80.15000000000002" data-glyph-ascender="68.84885000000001" data-glyph-descender="-11.301150000000002"></path><path d="M38.15 0L16.35-39.19L16.35 0L5.45 0L5.45-53.46L20.04-53.46L41.28-13.63L41.28-53.46L52.10-53.46L52.10 0L38.15 0Z" transform="translate(115.57630000000002 309.29885) skewX(0)" fill="rgb(1, 60, 150)" stroke="rgb(1, 60, 150)" stroke-width="0.134" data-glyph-w="57.547700000000006" data-glyph-h="80.15000000000002" data-glyph-ascender="68.84885000000001" data-glyph-descender="-11.301150000000002"></path><path d="M38.15 0L16.35-39.19L16.35 0L5.45 0L5.45-53.46L20.04-53.46L41.28-13.63L41.28-53.46L52.10-53.46L52.10 0L38.15 0Z" transform="translate(173.12400000000002 309.29885) skewX(0)" fill="rgb(1, 60, 150)" stroke="rgb(1, 60, 150)" stroke-width="0.134" data-glyph-w="57.547700000000006" data-glyph-h="80.15000000000002" data-glyph-ascender="68.84885000000001" data-glyph-descender="-11.301150000000002"></path></g></svg></g>
        </g>
  </svg>